PathFileType	4	(X/Y/Z)	D:\TRACE\spotREDO_2-26-24\spot_justBody_Motion_3_2-platform.trc
DataRate	CameraRate	NumFrames	NumMarkers	Units	OrigDataRate	OrigDataStartFrame	OrigNumFrames
100.00	100.00	      24	5	mm	100.00	6126	      7000
Frame#	Time	Left_Front			Right_Front			Left_Aft			Right_Aft			Post			
		X1	Y1	Z1	X2	Y2	Z2	X3	Y3	Z3	X4	Y4	Z4	X5	Y5	Z5	

6126	61.250	-711.09601	11.23468	-571.47003	703.78174	18.04352	-487.09137	-782.19037	-11.58169	646.95251	787.88586	-4.29830	650.70105	-1.72639	648.47839	-962.30945	
6127	61.260	-711.13318	11.20415	-571.53113	703.74878	17.98707	-487.21350	-782.06531	-11.29860	647.04602	787.86096	-4.21193	650.66205	-1.67275	648.31012	-962.38477	
6128	61.270	-711.20422	11.08177	-571.60815	703.76727	17.87485	-487.21851	-782.03540	-11.14546	647.01135	787.86469	-4.44703	650.27167	-1.69801	648.14764	-962.48212	
6129	61.280	-711.25659	11.02842	-571.65936	703.76727	17.74535	-487.32266	-782.12262	-10.96297	647.01398	787.77307	-4.01567	650.61102	-1.65875	647.89240	-962.59540	
6130	61.290	-711.29132	10.81324	-571.75360	703.78491	17.65565	-487.28363	-782.17267	-10.81432	646.89838	787.73645	-3.86953	650.64966	-1.74309	647.68982	-962.71503	
6131	61.300	-711.28674	10.68154	-571.90253	703.75690	17.55745	-487.36273	-782.13678	-10.72884	646.92078	787.78796	-3.70444	650.62360	-1.78595	647.49530	-962.86426	
6132	61.310	-711.22772	10.43660	-571.92291	703.91272	17.20814	-487.24652	-782.15906	-10.64823	646.86395	787.96082	-3.46893	650.62115	-1.69820	647.32001	-963.00159	
6133	61.320	-711.02277	10.11822	-571.99542	703.97919	17.03099	-487.35461	-782.07422	-10.58050	646.84418	788.18304	-3.19692	650.57031	-1.43538	647.11993	-963.27844	
6134	61.330	-710.97821	10.08068	-572.04535	704.09753	16.91002	-487.31049	-782.09241	-10.49104	646.69312	788.36694	-2.95378	650.52979	-1.28989	646.94141	-963.48999	
6135	61.340	-710.82953	9.88530	-572.02039	704.20331	16.77152	-487.39627	-781.90332	-10.29690	646.64264	788.59204	-2.75713	650.47791	-1.12033	646.58862	-963.85016	
6136	61.350	-710.61224	9.64346	-572.05273	704.31372	16.71604	-487.55432	-781.64374	-10.18638	646.55920	788.85724	-2.52356	650.44458	-0.92679	646.19659	-964.21942	
6137	61.360	-710.47754	9.44970	-572.08447	704.37042	16.62487	-487.58084	-781.50964	-9.96327	646.50226	788.96881	-2.34029	650.37775	-0.93183	645.81500	-964.54889	
6138	61.370	-710.42834	9.38150	-572.09717	704.48004	16.58271	-487.67316	-781.36731	-9.76037	646.46307	788.98730	-2.26473	650.35284	-0.97314	645.56934	-964.69934	
6139	61.380	-710.40936	9.30043	-572.13586	704.53613	16.42641	-487.73911	-781.27423	-9.59951	646.40063	788.93854	-2.11858	650.29413	-0.85787	645.42896	-964.82214	
6140	61.390	-710.38135	9.24041	-572.15076	704.53857	16.34077	-487.84549	-781.23761	-9.44550	646.35938	788.84387	-2.03081	650.25146	-0.78459	645.27100	-965.02820	
6141	61.400	-710.31128	9.16827	-572.23395	704.57599	16.23428	-487.87067	-781.23822	-9.37478	646.32196	788.86761	-1.94462	650.20471	-0.63754	645.06140	-965.34735	
6142	61.410	-710.18817	9.04075	-572.24475	704.66492	16.12533	-487.91809	-781.20483	-9.31220	646.31940	788.96204	-1.80451	650.14203	-0.51853	644.72070	-965.51855	
6143	61.420	-710.05591	8.91353	-572.31464	704.91901	15.79332	-487.81058	-781.11584	-9.18539	646.30237	788.98889	-1.70284	650.10828	-0.47962	644.54675	-965.65875	
6144	61.430	-709.84399	8.69206	-572.44757	705.07855	15.65587	-487.82834	-780.92291	-9.04538	646.24780	789.17517	-1.54523	650.05884	-0.21261	644.33899	-965.72388	
6145	61.440	-709.65613	8.51051	-572.48041	705.25476	15.52394	-487.85690	-780.93756	-8.55755	646.09814	789.38525	-1.43341	650.01166	-0.04438	644.09973	-965.79340	
6146	61.450	-709.55499	8.34503	-572.48529	705.32770	15.37271	-487.94876	-780.88007	-8.41369	646.04163	789.51373	-1.28309	650.01202	0.11760	643.86115	-965.98907	
6147	61.460	-709.49707	8.14868	-572.54291	705.36694	15.31984	-487.93942	-780.79810	-8.08592	646.07135	789.60504	-1.16117	649.96039	0.24004	643.64349	-966.15375	
6148	61.470	-709.42181	8.02815	-572.56323	705.46582	15.20005	-488.15665	-780.76996	-8.08906	645.98389	789.73175	-0.98087	649.97571	0.21733	643.44214	-966.32782	
6149	61.480	-709.30438	7.82068	-572.60596	705.56744	15.11284	-488.13480	-780.76093	-7.88993	645.92889	789.83960	-0.77172	649.94458	0.24402	643.21149	-966.53967	
